<svg width="64" height="64" viewBox="0 0 64 64" xmlns="http://www.w3.org/2000/svg">
  <g fill="none" stroke="black" stroke-width="2" stroke-linecap="round" stroke-linejoin="round">
    <line x1="32" y1="32" x2="32" y2="2"/>
    <line x1="32" y1="32" x2="53.21" y2="10.79"/>
    <line x1="32" y1="32" x2="62" y2="32"/>
    <line x1="32" y1="32" x2="53.21" y2="53.21"/>
    <line x1="32" y1="32" x2="32" y2="62"/>
    <line x1="32" y1="32" x2="10.79" y2="53.21"/>
    <line x1="32" y1="32" x2="2" y2="32"/>
    <line x1="32" y1="32" x2="10.79" y2="10.79"/>
    <polygon points="32,12 46.14,17.86 52,32 46.14,46.14 32,52 17.86,46.14 12,32 17.86,17.86"/>
    <polygon points="32,22 39.07,24.93 42,32 39.07,39.07 32,42 24.93,39.07 22,32 24.93,24.93"/>
  </g>
</svg>
